<svg id="Group_9" data-name="Group 9" xmlns="http://www.w3.org/2000/svg" width="251.966" height="44.001" viewBox="0 0 251.966 44.001">
  <g id="logo_seigneurie_blanc">
    <g id="Group" transform="translate(56.248 0.644)">
      <path id="Shape" d="M19.95,0V5.348H7.255v3.7h11.5v5.348H7.255v3.748H20.261v5.348H0V0Z" transform="translate(0.466 0.55)" fill="#fff"/>
      <path id="Shape-2" data-name="Shape" d="M7.255,0V23.539H0V0Z" transform="translate(23.318 0.55)" fill="#fff"/>
      <path id="Shape-3" data-name="Shape" d="M17.307,11.445h6.218V23.739H18.24V22.19a11.094,11.094,0,0,1-5.907,1.849C5.182,24.039,0,18.891,0,11.995S5.752,0,13.473,0A17.242,17.242,0,0,1,23.888,3.548l-4.094,4.8A9.647,9.647,0,0,0,13.576,5.8a6.032,6.032,0,0,0-6.166,6.2c0,3.6,2.487,6.2,5.752,6.2a5.95,5.95,0,0,0,4.2-1.8V11.445Z" transform="translate(32.438 0.3)" fill="#fff"/>
      <path id="Shape-4" data-name="Shape" d="M6.166,0,16.478,13.144V0h6.633V23.539H16.945L6.633,10.445V23.539H0V0Z" transform="translate(58.762 0.55)" fill="#fff"/>
      <path id="Shape-5" data-name="Shape" d="M19.9,0V5.348H7.2v3.7h11.5v5.348H7.2v3.748H20.261v5.348H0V0Z" transform="translate(85.138 0.55)" fill="#fff"/>
      <path id="Shape-6" data-name="Shape" d="M11.556,17.942c2.384,0,4.094-1.649,4.094-4.4V0H22.9V13.594c0,6.247-4.4,10.245-11.348,10.245-7,0-11.556-4-11.556-10.245V0H7.255V13.594A4.087,4.087,0,0,0,11.556,17.942Z" transform="translate(107.627 0.55)" fill="#fff"/>
      <path id="Shape-7" data-name="Shape" d="M22.489,23.539H14.3v-.05l-3.213-6.347H7.255v6.347H0V0H11.348c3.259,0,5.818.729,7.6,2.168A7.509,7.509,0,0,1,21.66,8.347c0,3.436-1.416,6.028-4.094,7.5l4.922,7.7ZM7.2,5.348v6.447h4.145c2.205,0,3.42-1.154,3.42-3.248,0-2.033-1.247-3.2-3.42-3.2Z" transform="translate(133.381 0.55)" fill="#fff"/>
      <path id="Shape-8" data-name="Shape" d="M7.255,0V23.539H0V0Z" transform="translate(157.684 0.55)" fill="#fff"/>
      <path id="Shape-9" data-name="Shape" d="M19.9,0V5.348H7.2v3.7h11.5v5.348H7.2v3.748H20.261v5.348H0V0Z" transform="translate(168.203 0.55)" fill="#fff"/>
      <path id="Shape-10" data-name="Shape" d="M2.539,4.9A2.5,2.5,0,0,1,0,2.449,2.5,2.5,0,0,1,2.539,0,2.5,2.5,0,0,1,5.078,2.449,2.5,2.5,0,0,1,2.539,4.9Zm0-4.5A2.09,2.09,0,0,0,.415,2.449,2.065,2.065,0,0,0,2.539,4.5l.089,0a2.014,2.014,0,0,0,1.449-.606A2.057,2.057,0,0,0,2.539.4ZM3.627,3.748h-.1a.147.147,0,0,1-.156-.1L2.747,2.9H2.021v.7a.135.135,0,0,1-.155.15H1.814c-.1,0-.1-.05-.1-.15V1.2c0-.1.052-.15.1-.15h.778c.671,0,1.088.345,1.088.9a.76.76,0,0,1-.622.8l.622.85c.033.064.041.1.027.123S3.669,3.748,3.627,3.748Zm-1.658-2.3v1.2h.518c.494,0,.777-.218.777-.6s-.278-.6-.725-.6Z" transform="translate(190.64 0.5)" fill="#fff"/>
    </g>
    <path id="Shape-11" data-name="Shape" d="M11.405,5.777c-1.244,0-2.074.405-2.074,1.317,0,3.6,13.116,1.469,13.116,10.337,0,5.219-4.718,7.7-10.368,7.7A20.765,20.765,0,0,1,0,21.232l2.748-5.473a17.351,17.351,0,0,0,9.383,3.648c1.555,0,2.592-.507,2.592-1.622,0-3.7-13.116-1.368-13.116-10.033C1.607,3.04,5.754,0,11.975,0A20.672,20.672,0,0,1,22.5,2.838L19.751,8.412C17.211,7.043,13.531,5.777,11.405,5.777Z" transform="translate(32.425)" fill="#fff"/>
    <g id="Group-2" data-name="Group">
      <path id="Shape-12" data-name="Shape" d="M11.923,0H0V11.612A28.49,28.49,0,0,1,11.923,0Z" transform="translate(0.413 0.352)" fill="#fff"/>
      <path id="Shape-13" data-name="Shape" d="M0,24.53H13.472A11.6,11.6,0,0,1,25.188,13.069V0C11.3,0,0,11.008,0,24.53Z" transform="translate(0.516 0.503)" fill="#fff"/>
      <path id="Shape-14" data-name="Shape" d="M0,7.992H8.207V0A8.09,8.09,0,0,0,0,7.992Z" transform="translate(17.549 17.04)" fill="#fff"/>
    </g>
  </g>
  <g id="Group-3" data-name="Group" transform="translate(0 35)">
    <path id="Shape-15" data-name="Shape" d="M1.607,0V7.418H5.172V9H0V0Z" fill="#fff"/>
    <path id="Shape-16" data-name="Shape" d="M1.687,9H0L3.681,0H5.42L9.05,9H7.312L6.6,7.091H2.454L1.687,9ZM4.55,1.855,3.068,5.618H6.034Z" transform="translate(5.172)" fill="#fff"/>
    <path id="Shape-17" data-name="Shape" d="M1.555,9H0V0H3.3l.139,0A2.766,2.766,0,0,1,6.465,3.056,2.929,2.929,0,0,1,3.3,6.328H1.555V9ZM1.6,1.474V4.8H3.256c1.177,0,1.8-.584,1.8-1.69,0-1.07-.622-1.636-1.8-1.636Z" transform="translate(19.393)" fill="#fff"/>
    <path id="Shape-18" data-name="Shape" d="M6.308,0V1.518H1.668V3.741H5.839V5.259H1.668V7.482h4.8V9H0V.054H6.308Z" transform="translate(27.797)" fill="#fff"/>
    <path id="Shape-19" data-name="Shape" d="M7.111,9H5.32V8.946L3.837,6.289h-2.2V8.946H0V0H3.53C5.708,0,6.957,1.126,6.957,3.091A2.99,2.99,0,0,1,5.27,6.018L7.11,9ZM1.637,1.518V4.825H3.53c1.256,0,1.893-.565,1.893-1.68,0-1.064-.654-1.626-1.893-1.626Z" transform="translate(35.554)" fill="#fff"/>
    <path id="Shape-20" data-name="Shape" d="M5.818,0V1.518H1.633v2.44H5.461V5.476H1.633V9H0V.054H5.818Z" transform="translate(44.604)" fill="#fff"/>
    <path id="Shape-21" data-name="Shape" d="M4.525,9A4.46,4.46,0,0,1,0,4.474,4.439,4.439,0,0,1,1.3,1.267,4.559,4.559,0,0,1,4.525,0h.1A4.35,4.35,0,0,1,9.05,4.474,4.46,4.46,0,0,1,4.525,9Zm.051-7.49A2.892,2.892,0,0,0,1.7,4.474a2.991,2.991,0,0,0,2.88,3.018A2.931,2.931,0,0,0,7.4,4.474,2.9,2.9,0,0,0,4.576,1.51Z" transform="translate(51.069)" fill="#fff"/>
    <path id="Shape-22" data-name="Shape" d="M7.111,9H5.32V8.946L3.837,6.289h-2.2V8.946H0V0H3.53C5.708,0,6.957,1.126,6.957,3.091A2.99,2.99,0,0,1,5.27,6.018L7.11,9ZM1.688,1.518V4.825H3.581c1.256,0,1.893-.565,1.893-1.68,0-1.064-.654-1.626-1.893-1.626Z" transform="translate(61.412)" fill="#fff"/>
    <path id="Shape-23" data-name="Shape" d="M1.892,0,4.551,5.782,7.209,0H9.05V9H7.567V2.564L5.062,8.073H3.988L1.483,2.564V9H0V0Z" transform="translate(70.462)" fill="#fff"/>
    <path id="Shape-24" data-name="Shape" d="M1.7,9H0L3.7,0H5.4L9.05,9H7.3L6.633,7.091H2.468L1.7,9Zm2.88-7.146L3.085,5.618H6.068L4.576,1.855Z" transform="translate(80.805)" fill="#fff"/>
    <path id="Shape-25" data-name="Shape" d="M1.594,0,6.11,6.164V0H7.757V9H6.163L1.647,2.836V9H0V0Z" transform="translate(91.148)" fill="#fff"/>
    <path id="Shape-26" data-name="Shape" d="M4.469,1.455A2.856,2.856,0,0,0,1.644,4.419,2.856,2.856,0,0,0,4.469,7.383,3.284,3.284,0,0,0,6.781,6.359l.976,1.132A4.737,4.737,0,0,1,4.418,9,4.4,4.4,0,0,1,0,4.473,4.4,4.4,0,0,1,4.469,0,4.64,4.64,0,0,1,7.757,1.4l-.925,1.24A3.474,3.474,0,0,0,4.469,1.455Z" transform="translate(100.198)" fill="#fff"/>
    <path id="Shape-27" data-name="Shape" d="M6.308,0V1.518H1.668V3.741H5.839V5.259H1.668V7.482h4.8V9H0V.054H6.308Z" transform="translate(109.248)" fill="#fff"/>
    <path id="Shape-28" data-name="Shape" d="M1.555,9H0V0H3.3l.136,0A3.042,3.042,0,0,1,5.669.808a3.115,3.115,0,0,1,.8,2.247A2.929,2.929,0,0,1,3.3,6.328H1.555V9Zm0-7.526V4.8H3.208c1.176,0,1.8-.584,1.8-1.69,0-1.07-.622-1.636-1.8-1.636Z" transform="translate(121.53)" fill="#fff"/>
    <path id="Shape-29" data-name="Shape" d="M4.525,9A4.46,4.46,0,0,1,0,4.474,4.439,4.439,0,0,1,1.3,1.267,4.559,4.559,0,0,1,4.525,0h.1A4.35,4.35,0,0,1,9.05,4.474,4.46,4.46,0,0,1,4.525,9Zm0-7.49a2.926,2.926,0,0,0-2.88,2.964,2.991,2.991,0,0,0,2.88,3.018A2.931,2.931,0,0,0,7.353,4.474,2.9,2.9,0,0,0,4.525,1.51Z" transform="translate(128.641)" fill="#fff"/>
    <path id="Shape-30" data-name="Shape" d="M3.852,7.482A2.08,2.08,0,0,0,6.045,5.2V0H7.757V5.2A3.563,3.563,0,0,1,3.905,9,3.579,3.579,0,0,1,0,5.2V0H1.712V5.2A1.991,1.991,0,0,0,3.852,7.482Z" transform="translate(139.631)" fill="#fff"/>
    <path id="Shape-31" data-name="Shape" d="M7.111,9H5.32V8.946L3.837,6.289h-2.2V8.946H0V0H3.53C5.708,0,6.957,1.126,6.957,3.091A2.99,2.99,0,0,1,5.27,6.018L7.11,9ZM1.637,1.518V4.825H3.53c1.256,0,1.893-.565,1.893-1.68,0-1.064-.654-1.626-1.893-1.626Z" transform="translate(148.681)" fill="#fff"/>
    <path id="Shape-32" data-name="Shape" d="M1.691,0,4.2,7.091,6.713,0H8.4L5.022,9H3.331L0,0Z" transform="translate(159.67)" fill="#fff"/>
    <path id="Shape-33" data-name="Shape" d="M4.525,9A4.46,4.46,0,0,1,0,4.474,4.439,4.439,0,0,1,1.3,1.267,4.559,4.559,0,0,1,4.525,0h.1A4.35,4.35,0,0,1,9.05,4.474,4.46,4.46,0,0,1,4.525,9Zm.051-7.49A2.892,2.892,0,0,0,1.7,4.474a2.991,2.991,0,0,0,2.88,3.018A2.931,2.931,0,0,0,7.4,4.474,2.9,2.9,0,0,0,4.576,1.51Z" transform="translate(168.72)" fill="#fff"/>
    <path id="Shape-34" data-name="Shape" d="M3.4,1.5c-.729,0-1.215.268-1.215.857,0,1.768,4.326.8,4.277,4.018C6.464,8.036,5.152,9,3.4,9A5.222,5.222,0,0,1,0,7.607L.632,6.161A4.269,4.269,0,0,0,3.4,7.446c.875,0,1.361-.375,1.361-.964,0-1.821-4.326-.8-4.326-3.964C.437.964,1.652,0,3.451,0A5.308,5.308,0,0,1,6.367.911L5.735,2.357A4.148,4.148,0,0,0,3.4,1.5Z" transform="translate(178.417)" fill="#fff"/>
    <path id="Shape-35" data-name="Shape" d="M1.555,9H0V0H3.3l.136,0A3.042,3.042,0,0,1,5.669.808a3.115,3.115,0,0,1,.8,2.247A2.929,2.929,0,0,1,3.3,6.328H1.555V9Zm0-7.526V4.8H3.208c1.176,0,1.8-.584,1.8-1.69,0-1.07-.622-1.636-1.8-1.636Z" transform="translate(191.346)" fill="#fff"/>
    <path id="Shape-36" data-name="Shape" d="M7.111,9H5.32V8.946L3.837,6.289h-2.2V8.946H0V0H3.53C5.708,0,6.957,1.126,6.957,3.091A2.99,2.99,0,0,1,5.27,6.018L7.11,9ZM1.688,1.518V4.825H3.581c1.256,0,1.893-.565,1.893-1.68,0-1.064-.654-1.626-1.893-1.626Z" transform="translate(199.103)" fill="#fff"/>
    <path id="Shape-37" data-name="Shape" d="M4.525,9A4.46,4.46,0,0,1,0,4.474,4.439,4.439,0,0,1,1.3,1.267,4.559,4.559,0,0,1,4.525,0h.1A4.35,4.35,0,0,1,9.05,4.474,4.46,4.46,0,0,1,4.525,9Zm.051-7.49A2.892,2.892,0,0,0,1.7,4.474a2.991,2.991,0,0,0,2.88,3.018A2.931,2.931,0,0,0,7.4,4.474,2.9,2.9,0,0,0,4.576,1.51Z" transform="translate(207.507)" fill="#fff"/>
    <path id="Shape-38" data-name="Shape" d="M2.512,9A3.039,3.039,0,0,1,0,7.653L.739,6.359a2.389,2.389,0,0,0,1.724.97c.69,0,1.084-.431,1.084-1.293V1.509H.788V0H5.172V6.09C5.122,7.922,4.137,9,2.512,9Z" transform="translate(216.557)" fill="#fff"/>
    <path id="Shape-39" data-name="Shape" d="M6.308,0V1.518H1.668V3.741H5.839V5.259H1.668V7.482h4.8V9H0V.054H6.308Z" transform="translate(223.668)" fill="#fff"/>
    <path id="Shape-40" data-name="Shape" d="M7.111,0V1.527H4.4V9h-1.7V1.527H0V0Z" transform="translate(231.425)" fill="#fff"/>
    <path id="Shape-41" data-name="Shape" d="M3.4,1.5c-.729,0-1.215.268-1.215.857,0,1.768,4.326.8,4.277,4.018C6.464,8.036,5.152,9,3.4,9A5.222,5.222,0,0,1,0,7.607L.632,6.161A4.269,4.269,0,0,0,3.4,7.446c.875,0,1.361-.375,1.361-.964,0-1.821-4.326-.8-4.326-3.964C.437.964,1.652,0,3.451,0A5.308,5.308,0,0,1,6.367.911L5.735,2.357A4.148,4.148,0,0,0,3.4,1.5Z" transform="translate(238.536)" fill="#fff"/>
  </g>
</svg>
