<svg id="Group" xmlns="http://www.w3.org/2000/svg" width="92" height="73" viewBox="0 0 92 73">
  <path id="Shape" d="M74.586,73H17.414A17.446,17.446,0,0,1,0,55.533V17.467A17.511,17.511,0,0,1,17.414,0H74.586A17.511,17.511,0,0,1,92,17.467V55.533A17.382,17.382,0,0,1,74.586,73" fill="#fff"/>
  <path id="Shape-2" data-name="Shape" d="M69.934,65H14.066A14.1,14.1,0,0,1,0,50.98V14.02A14.1,14.1,0,0,1,14.066,0H69.934A14.1,14.1,0,0,1,84,14.02V50.98A14.04,14.04,0,0,1,69.934,65" transform="translate(3 3)" fill="#0073a4"/>
  <path id="Shape-3" data-name="Shape" d="M69.984,65H14.016A14.068,14.068,0,0,1,0,51V14A14,14,0,0,1,14.016,0H69.984A14.068,14.068,0,0,1,84,14V51A14,14,0,0,1,69.984,65Z" transform="translate(3 3)" fill="none" stroke="#0073a4" stroke-miterlimit="10" stroke-width="0.139"/>
  <path id="Shape-4" data-name="Shape" d="M35.265,53H22.977V26.177a9.392,9.392,0,0,1-4.6,5.445A13.2,13.2,0,0,1,13.1,33.03a12.429,12.429,0,0,1-2.418-.294L7.659,29.8v9.1a3.966,3.966,0,0,0,2.62,4.111H0V9.927H6.349c.668,0,1.339-.005,1.988-.011.63-.005,1.278-.01,1.9-.01a24.864,24.864,0,0,1,7.988.9,8.035,8.035,0,0,1,2.962,1.743A7.892,7.892,0,0,1,23.179,15.7V.04h7.659c1.076,0,2.147-.01,3.182-.02S36.024,0,36.994,0c4.906,0,10,.194,13.614,2.519A10.88,10.88,0,0,1,54.737,7.5a24.306,24.306,0,0,1,1.7,9.086,1.076,1.076,0,0,1,.2-.392,11.445,11.445,0,0,1,4.131-4.307c2.617-1.67,5.616-2.414,9.725-2.414A50,50,0,0,1,78,10.123v7.146a11.044,11.044,0,0,0-6.977-2.63,9.816,9.816,0,0,0-2.7.379,8.673,8.673,0,0,0-5.441,6.265c-.907,4.9-.51,12.132,1.511,14.684a6.378,6.378,0,0,0,4.946,2.312,5.534,5.534,0,0,0,1.705-.257v-7.44c0-2.132-.882-3.515-2.621-4.111H77.8v16.25c-2.057.3-4.068.491-6.148.588-.617.037-1.228.056-1.816.056a19.717,19.717,0,0,1-7.254-1.232,11.71,11.71,0,0,1-6.462-5.739,20.711,20.711,0,0,1-2-8.455,13.966,13.966,0,0,1-6.3,6.326,16.958,16.958,0,0,1-6.6,1.7,11.653,11.653,0,0,1-3.93-.588l-4.636-4.5V48.889c0,2.129.88,3.512,2.614,4.109ZM38.392,5.006a14.276,14.276,0,0,0-1.666.108l-.145.016a6.26,6.26,0,0,0-2.507,1,2.533,2.533,0,0,0-1.222,2.031V27.94A12.274,12.274,0,0,0,39.1,29.6a6.524,6.524,0,0,0,4.587-1.976c2.149-2.168,3.217-5.884,3.173-11.044,0-4.506-1.033-7.752-3.071-9.647A7.642,7.642,0,0,0,38.392,5.006ZM11.03,13.472c-.43,0-.8.034-1.062.059H9.956l-.181.016a1.875,1.875,0,0,0-1.914,1.86V27.352a5.039,5.039,0,0,0,3.527,1.077A4.341,4.341,0,0,0,14.6,27.291c1.279-1.242,1.927-3.527,1.927-6.791,0-2.742-.666-4.713-1.98-5.858A5.18,5.18,0,0,0,11.03,13.472Z" transform="translate(8 9)" fill="#fff"/>
</svg>
